<?xml version="1.0" encoding="UTF-8"?>
<svg width="113px" height="22px" viewBox="0 0 113 22" version="1.1" xmlns="http://www.w3.org/2000/svg" xmlns:xlink="http://www.w3.org/1999/xlink">
    <!-- Generator: Sketch 63.1 (92452) - https://sketch.com -->
    <title>numias logos-01 copy 3</title>
    <desc>Created with Sketch.</desc>
    <g id="Home-Page" stroke="none" stroke-width="1" fill="none" fill-rule="evenodd">
        <g id="Home-Page---RTD" transform="translate(-51.000000, -34.000000)" fill="#FFFFFF" fill-rule="nonzero">
            <g id="numias-logos-01-copy-3" transform="translate(51.000000, 34.000000)">
                <path d="M0,2 L7.39030336,2 C10.5513272,2 12.8144637,2.45816957 14.1820152,3.3745087 C15.4068256,4.1807973 16.1826923,5.14430095 16.5096154,6.26951151 C16.8365385,7.39472207 17,8.87478944 17,10.7074677 L17,22 L13.2426869,22 L13.2426869,10.7501404 C13.2426869,10.2492981 13.2288732,9.82706345 13.1989437,9.47894441 C13.1713164,9.13082538 13.0700163,8.68837732 12.8996479,8.14486244 C12.7292795,7.60359349 12.4852384,7.15889949 12.1744312,6.81078046 C11.8613218,6.46266143 11.4054713,6.15946098 10.8068797,5.89444133 C10.2082882,5.6316676 9.48307151,5.49915778 8.62892741,5.49915778 L3.75961538,5.49915778 L3.75961538,22 L0,22 L0,2 Z" id="Path"></path>
                <path d="M36.997698,22 L29.6083954,22 C26.4477996,22 24.1849695,21.5418304 22.8176032,20.6254913 C21.5929587,19.8192027 20.817197,18.855699 20.4903182,17.7304885 C20.1634394,16.6052779 20,15.1252106 20,13.2925323 L20,2 L23.7591063,2 L23.7591063,13.2498596 C23.7591063,13.7507019 23.7729181,14.1729366 23.8028436,14.5210556 C23.8304672,14.8691746 23.9317536,15.3116227 24.1020988,15.8551376 C24.2724441,16.3964065 24.5164523,16.8411005 24.8272173,17.1892195 C25.1402844,17.5373386 25.5960731,17.840539 26.1945836,18.1055587 C26.7930941,18.3683324 27.5182126,18.5008422 28.372241,18.5008422 L33.2408937,18.5008422 L33.2408937,2 L37,2 L37,22 L36.997698,22 Z" id="Path"></path>
                <path d="M113,2.00221607 L113,5.50138504 L104.741349,5.50138504 C103.933895,5.50138504 103.239574,5.65429363 102.656167,5.9601108 C102.07276,6.26592798 101.779947,6.69584488 101.779947,7.25207756 C101.779947,7.58448753 101.848713,7.88365651 101.988465,8.14736842 C102.128217,8.41108033 102.285714,8.62603878 102.467613,8.79224377 C102.647294,8.95844875 102.926797,9.13351801 103.301686,9.31301939 C103.676575,9.49473684 103.969388,9.61883657 104.177906,9.68753463 C104.386424,9.75844875 105.269299,10.0421053 106.826531,10.5407202 C108.383762,11.0415512 109.537267,11.4581717 110.289264,11.7905817 C111.039042,12.1229917 111.615794,12.5750693 112.019521,13.1445983 C112.423248,13.7141274 112.67835,14.2703601 112.791482,14.8110803 C112.902396,15.3518006 112.957853,15.8880886 112.957853,16.4155125 C112.957853,20.1385042 110.400177,22 105.282609,22 L98.0532387,22 L98,18.500831 L105.282609,18.500831 C107.895741,18.500831 109.202307,17.8072022 109.202307,16.4177285 C109.202307,15.7506925 108.820763,15.1966759 108.055457,14.7512465 C107.290151,14.3080332 106.358474,13.9313019 105.260426,13.6254848 C104.162378,13.3196676 103.06433,12.965097 101.966282,12.5639889 C100.868234,12.1606648 99.9365572,11.5091413 99.1712511,10.6049861 C98.405945,9.70304709 98.0244011,8.58393352 98.0244011,7.2498615 C98.0244011,5.5567867 98.676575,4.25595568 99.9853594,3.35401662 C101.291925,2.45207756 102.877995,2 104.73913,2 L113,2 L113,2.00221607 Z" id="Path"></path>
                <path d="M72.9987753,8.42086448 C72.2247397,8.42086448 71.5609308,8.2638934 71,8 L71,21.9977251 L75,22 L75,8 C74.4366197,8.2638934 73.7703613,8.42086448 72.9987753,8.42086448 Z" id="Path"></path>
                <circle id="Oval" cx="73" cy="3" r="3"></circle>
                <path d="M89.746598,10.2502246 L89.746598,13.9991015 C88.6909764,13.1927224 87.3995244,12.7906559 85.872242,12.7906559 C84.567314,12.7906559 83.5521205,13.0467206 82.8311534,13.5610961 C82.1079403,14.0754717 81.7485797,14.8054807 81.7485797,15.7488769 C81.7485797,17.581761 83.1096578,18.4982031 85.831814,18.4982031 L91.3322764,18.4982031 L91.3322764,10.5422282 C91.3322764,7.1819407 89.6926939,5.49955076 86.4157749,5.49955076 L79.7496367,5.49955076 L79.7496367,2 L86.6246532,2 C89.3176113,2 91.3884265,2.6671159 92.8326067,3.99910153 C94.2767869,5.33333333 95,7.24932615 95,9.74932615 L95,22 L85.7082838,22 C83.3477342,22 81.4723213,21.4721473 80.0842912,20.416442 C78.6940151,19.3607367 78,17.8198562 78,15.7915544 C78,13.7632525 78.7366891,12.222372 80.2078214,11.1666667 C81.6789536,10.1109614 83.5274145,9.58310872 85.7487119,9.58310872 C86.9974898,9.58310872 88.3293698,9.80548068 89.746598,10.2502246 Z" id="Path"></path>
                <path d="M66.9886552,7.56166536 L66.9886552,2 L63.2925212,2 L63.2925212,2.01122209 L48.7008465,2.01122209 C46.7087006,2.01122209 45.1226983,2.38603973 43.9451086,3.13567501 C42.7380225,3.88531029 41.9461559,4.85714286 41.5672397,6.05117271 C41.1883236,7.24520256 41,8.6748962 41,10.3402536 L41,22 L44.7029409,22 L44.7029409,10.3402536 C44.7029409,8.1743912 45.360939,6.74469756 46.6814731,6.05117271 C47.3553539,5.68982157 48.7167292,5.51026821 50.7633301,5.51026821 L52.4900079,5.51026821 L52.4900079,22 L56.1952177,22 L56.1952177,5.51026821 L63.2947901,5.51026821 L63.2947901,7.55942094 L63.2947901,10.0103243 L63.2947901,21.9955112 L67,21.9977556 L67,7.55717652 C66.9931931,7.55942094 66.9909242,7.55942094 66.9886552,7.56166536 Z" id="Path"></path>
            </g>
        </g>
    </g>
</svg>